# Tiled2Unity generated file. Do not modify by hand.
# Wavefront file for 'Background_mesh_0028.obj'

# Vertices (Count = 16)
v -6656 -1280 0
v -6912 -1280 0
v -6912 -1024 0
v -6656 -1024 0
v -1280 -3584 0
v -1536 -3584 0
v -1536 -3328 0
v -1280 -3328 0
v -6144 -3840 0
v -6400 -3840 0
v -6400 -3584 0
v -6144 -3584 0
v -512 -6144 0
v -768 -6144 0
v -768 -5888 0
v -512 -5888 0

# Texture cooridinates (Count = 4)
vt 0 0
vt 1 0
vt 1 1
vt 0 1

# Normal
vn 0 0 -1

# Mesh description
g Background_mesh_0028

# Faces
f 1/1/1 2/2/1 3/3/1 4/4/1
f 5/1/1 6/2/1 7/3/1 8/4/1
f 9/1/1 10/2/1 11/3/1 12/4/1
f 13/1/1 14/2/1 15/3/1 16/4/1

