# Tiled2Unity generated file. Do not modify by hand.
# Wavefront file for 'Background_mesh_0030.obj'

# Vertices (Count = 16)
v -7168 -1280 0
v -7424 -1280 0
v -7424 -1024 0
v -7168 -1024 0
v -1792 -3584 0
v -2048 -3584 0
v -2048 -3328 0
v -1792 -3328 0
v -6656 -3840 0
v -6912 -3840 0
v -6912 -3584 0
v -6656 -3584 0
v -1024 -6144 0
v -1280 -6144 0
v -1280 -5888 0
v -1024 -5888 0

# Texture cooridinates (Count = 4)
vt 0 0
vt 1 0
vt 1 1
vt 0 1

# Normal
vn 0 0 -1

# Mesh description
g Background_mesh_0030

# Faces
f 1/1/1 2/2/1 3/3/1 4/4/1
f 5/1/1 6/2/1 7/3/1 8/4/1
f 9/1/1 10/2/1 11/3/1 12/4/1
f 13/1/1 14/2/1 15/3/1 16/4/1

